<?xml version="1.0" encoding="utf-8"?>
<!-- Generator: Adobe Illustrator 26.5.0, SVG Export Plug-In . SVG Version: 6.00 Build 0)  -->
<svg version="1.1" id="Layer_1" xmlns="http://www.w3.org/2000/svg" xmlns:xlink="http://www.w3.org/1999/xlink" x="0px" y="0px"
	 viewBox="0 0 1920 1080" style="enable-background:new 0 0 1920 1080;" xml:space="preserve">
<style type="text/css">
	.st0{fill:#FFFFFF;}
	.st1{fill:none;}
	.st2{fill:url(#SVGID_1_);}
	.st3{enable-background:new    ;}
</style>
<path class="st0" d="M1894,821.8v26.7c0,5.9-4.6,10.5-10.5,10.5h-127.2c0,6.7,0.2,12.5,0.2,18c0,39.4-1.6,71.6-5.5,107.8
	c-0.6,5.5-5.1,9.5-10.3,9.5h-27.5c-2.8,0-5.5-1.2-7.3-3.2c-1.8-2-2.8-4.9-2.4-7.7c3.8-36,5.7-67.7,5.7-106.3c0-5.7,0-11.5-0.2-18
	h-125.7c-5.9,0-10.5-4.6-10.5-10.5v-26.7c0-5.9,4.6-10.5,10.5-10.5h123.9c-2.6-43.5-7.9-85.3-16.4-127.8c-0.4-2.6,0.2-5.3,1.8-7.3
	c1.6-2,4-3.2,6.7-3.2h29.7c4.6,0,8.5,3.2,9.5,7.9c8.3,43.9,13.5,86.5,16.2,130.4h128.8C1889.1,811.3,1894,816.2,1894,821.8
	L1894,821.8z"/>
<g>
	<path class="st1" d="M194.4,469.5h-0.2 M192.8,469.7c-0.6,0-1.2-0.2-1.8-0.2C191.6,469.7,192.2,469.7,192.8,469.7L192.8,469.7z
		 M192.8,469.7c-0.6,0-1.2-0.2-1.8-0.2C191.6,469.7,192.2,469.7,192.8,469.7L192.8,469.7z"/>
	
		<radialGradient id="SVGID_1_" cx="1695.1041" cy="382.1905" r="1536.6641" gradientTransform="matrix(1 0 0 1 0 240.1102)" gradientUnits="userSpaceOnUse">
		<stop  offset="0" style="stop-color:#FFFFFF"/>
		<stop  offset="3.000000e-02" style="stop-color:#CBFFFF"/>
		<stop  offset="6.000000e-02" style="stop-color:#96FFFF"/>
		<stop  offset="8.000000e-02" style="stop-color:#68FFFF"/>
		<stop  offset="0.11" style="stop-color:#43FFFF"/>
		<stop  offset="0.14" style="stop-color:#25FFFF"/>
		<stop  offset="0.16" style="stop-color:#11FFFF"/>
		<stop  offset="0.19" style="stop-color:#04FFFF"/>
		<stop  offset="0.22" style="stop-color:#00FFFF"/>
		<stop  offset="1" style="stop-color:#0000FF;stop-opacity:0"/>
	</radialGradient>
	<path class="st2" d="M1720.9,610.2c-65.7-161.5-176.7-299.2-321-398.3c-147.8-101.3-321-154.9-501-154.9
		c-297.6,0-573.7,147.8-738.5,395.4c-1.8,2.6-2.2,6.1-1.2,9.1c1,3.2,3.4,5.5,6.5,6.5l23,7.9c1.4,0.4,2.8,0.6,4,0.6
		c4.2,0,8.3-2.2,10.7-5.7c75.6-111.2,177.9-203.6,296-267.5c121.9-65.9,260-100.9,399.3-100.9c168.4,0,330.7,49.7,469.8,143.5
		c135.6,91.6,241,219.5,304.7,369.8c1.8,4.4,6.3,7.5,11.1,7.5h27.5c3.2,0,6.3-1.6,7.9-4.2C1721.7,616.4,1722.2,613.2,1720.9,610.2z
		 M192.8,469.7c-0.6,0-1.2-0.2-1.8-0.4C191.6,469.5,192.2,469.7,192.8,469.7L192.8,469.7z M1678.7,619.7c0.6,0.4,1.2,0.8,1.8,1
		C1679.9,620.3,1679.3,620.1,1678.7,619.7z"/>
</g>
<g class="st3">
	<path class="st0" d="M107.6,614.4c0.6-15.6,14.9-23.4,27.3-23.4c10.4,0,20.1,5.2,20.1,18.2c1.3,24,1.9,40.3,1.9,63V693
		c46.1,0.6,96.1,18.2,135.8,44.2c47.4-20.1,85.1-57.8,85.1-103.9c0-69.5-105.9-81.2-133.2-81.2c-53.9,0-160.4,18.8-163,45.5v3.9
		c0,9.7,4.5,13,14.3,20.8c-7.8,1.9-14.9,2.6-20.8,2.6c-24,0-35.1-14.9-35.1-31.2c0-67.6,174.1-92.2,221.5-92.2
		c75.3,0,172.1,39,172.1,129.9c0,68.9-44.8,122.1-90.3,149.4c30.5,40.9,53.3,67.6,95.5,183.8c1.3,3.2,1.9,6.5,1.9,9.1
		c0,8.4-4.5,14.9-11,14.9c-5.2,0-11-3.9-16.9-14.3c-47.4-83.8-77.3-125.4-131.9-171.5c-33.1,12.3-76.6,19.5-115.6,19.5h-13
		c-0.6,20.8-0.6,32.5-0.6,53.9c0,22.7,0.6,46.1,3.2,70.2v3.2c0,18.2-12.3,28.6-24,28.6c-11.7,0-22.7-8.4-24-26.6
		c-2.6-22.1-3.9-40.9-3.9-59.8c0-24.7,1.9-48.7,3.2-77.3c-22.7-7.1-33.1-33.1-33.1-59.1c0-27.3,12.3-54.6,35.1-56.5v-31.2
		c0-17.5,0-28.6-1.3-46.8L107.6,614.4z M152.4,770.3c5.2,0.6,12.3,1.3,20.8,1.3c23.4,0,53.9-3.2,61.1-9.7
		c-9.7-11.7-39-15.6-61.1-15.6c-7.8,0-15.6,0.6-20.1,1.3l-1.3,9.1L152.4,770.3z"/>
	<path class="st0" d="M458.3,858c0-69.5,59.8-120.8,124.7-120.8c14.3,0,26,2,34.4,5.2c10.4,4.5,16.2,9.1,16.2,13
		c0,5.2-7.8,7.8-13.6,8.4h0.6c14.3,0,30.5,3.2,44.2,12.3c11,7.1,19.5,34.4,19.5,52c0,79.9-85.7,133.2-163.7,136.4
		c-2.6,7.8-10.4,13.6-18.2,20.8c-13-16.9-19.5-32.5-19.5-42.9v-1.3C465.4,911.9,458.3,884,458.3,858z M603.1,765.7
		c-10.4,1.9-20.1,4.5-28.6,7.1C520,785.9,496,832,496,871.6c0,6.5,0.6,13,2.6,19.5c27.9-71.5,53.3-110.4,89.6-121.5
		C593.4,768.3,598,766.4,603.1,765.7z M540.1,909.3h8.4c34.4,0,99.4-39.6,99.4-85.1c0-13.6-10.4-20.8-26-20.8
		C587.6,803.4,564.2,845,540.1,909.3z M603.1,765.7c1.3-0.6,1.9-0.6,3.2-0.6C605.1,765.1,604.4,765.1,603.1,765.7z"/>
	<path class="st0" d="M771.4,747.6c-0.6,46.8-19.5,60.4-30.5,150.7v2.6c0,5.8,3.2,11,7.1,11c9.1,0,23.4-7.8,43.5-14.9
		c9.7-3.9,22.7-10.4,29.2-10.4c6.5,0,7.1,11,7.1,14.9c0,27.9-48.1,69.5-79.9,69.5c-43.5,0-49.4-42.2-49.4-75.3
		c0-48.7,27.3-121.5,41.6-148.1c3.9-7.1,8.4-10.4,20.1-14.3C770.1,733.3,771.4,737.8,771.4,747.6z"/>
	<path class="st0" d="M918.2,747.6c-0.6,46.8-19.5,60.4-30.5,150.7v2.6c0,5.8,3.2,11,7.1,11c9.1,0,23.4-7.8,43.5-14.9
		c9.7-3.9,22.7-10.4,29.2-10.4c6.5,0,7.1,11,7.1,14.9c0,27.9-48.1,69.5-79.9,69.5c-43.5,0-49.4-42.2-49.4-75.3
		c0-48.7,27.3-121.5,41.6-148.1c3.9-7.1,8.4-10.4,20.1-14.3C916.9,733.3,918.2,737.8,918.2,747.6z"/>
	<path class="st0" d="M1141,566.3c11,0,36.4,11,36.4,35.1c0,50-85.7,107.2-128.6,107.2c-13,0-29.2-1.9-40.9-5.8
		c-7.1,8.4-9.7,15.6-19.5,16.9c-6.5-1.3-14.9-13.6-16.2-27.9c0-3.2,1.3-7.8,1.9-11c-9.7-13-16.9-24.7-16.9-39
		c0-42.9,64.3-100,126-100c28.6,0,51.3,11,55.2,25.3C1139,567,1139.7,566.3,1141,566.3z M991.6,643c1.3,0,2.6-0.6,3.2-1.3
		c8.4-11.7,35.7-37.7,50.7-52v-0.6c0-0.6,0-1.9-1.3-3.2c-32.5,6.5-52.6,30.5-55.2,55.9C989.6,642.3,990.3,643,991.6,643z
		 M1053.3,784.6c1.3,52.6,6.5,107.8,6.5,159.8c0,10.4-3.9,22.7-20.1,22.7c-5.2,0-13-1.9-18.2-3.9c-8.4-2.6-12.3-27.9-13-34.4
		c0-33.1,0.6-33.8,1.9-68.2c0.6-9.1,2.6-44.8,11-110.4c0.6-3.2,1.3-4.5,3.9-4.5C1048.7,746.3,1052,759.9,1053.3,784.6z
		 M1033.1,670.3h14.3c32.5,0,98.7-22.1,98.7-61.7c0-9.1,0-16.2-16.9-16.2c-37.7,0-74.7,36.4-101.3,72.8
		C1027.9,666.4,1031.2,670.3,1033.1,670.3z"/>
	<path class="st0" d="M1217.6,724.2c0-5.2,0.6-13.6,6.5-13.6c18.2,0,70.2,64.3,70.2,154.6c0,39.6-18.2,87-50,87
		c-37.7,0-77.3-120.8-86.4-120.8c-1.3,0-3.2,1.9-4.5,7.1c-2,7.8-3.2,76-6.5,96.1c-1.9,9.1-5.2,30.5-19.5,30.5
		c-20.8,0-25.3-35.7-25.3-51.3c0-33.8,16.9-153.3,44.8-153.3c19.5,0,58.5,81.2,92.9,124.1c2.6,2.6,3.9,5.2,4.5,5.2
		c3.9,0,3.9-5.8,3.9-16.9c0-59.8-12.3-77.3-28.6-138.4l-1.9-7.8V724.2z"/>
	<path class="st0" d="M1486.5,800.2c-7.8,5.2-17.5,7.1-27.9,7.1c3.9-7.1,5.8-13.6,5.8-16.9c0-2.6-1.9-5.2-7.8-5.2
		c-3.9,0-9.7,1.3-17.5,3.2c-44.8,10.4-80.5,41.6-80.5,92.9c0,28.6,15.6,44.2,50.7,44.2c15.6,0,63.7-3.9,63.7-46.1
		c0-8.4-19.5-9.1-30.5-9.1c-18.2,0-30.5,9.7-40.3,27.3c-14.3-4.5-14.9-9.7-14.9-20.1c0-41.6,59.1-42.9,87.7-42.9
		c29.2,0,46.8,20.1,46.8,42.2c0,59.1-43.5,91.6-118.2,91.6c-65.6,0-90.9-29.9-90.9-88.3c0-84.4,85.7-142.9,134.5-142.9
		c32.5,0,48.7,10.4,48.7,32.5c0,8.4-2.6,18.8-7.8,29.2L1486.5,800.2z"/>
</g>
</svg>
